<svg width="35" height="34" viewBox="0 0 35 34" fill="none" xmlns="http://www.w3.org/2000/svg">
<rect x="0.75" width="34" height="34" rx="4" fill="#39D0FF"/>
<g clip-path="url(#clip0_2017_1060)">
<path d="M26.75 10C25.64 9.65 24.42 9.5 23.25 9.5C21.3 9.5 19.2 9.9 17.75 11C16.3 9.9 14.2 9.5 12.25 9.5C10.3 9.5 8.2 9.9 6.75 11V25.65C6.75 25.9 7 26.15 7.25 26.15C7.35 26.15 7.4 26.1 7.5 26.1C8.85 25.45 10.8 25 12.25 25C14.2 25 16.3 25.4 17.75 26.5C19.1 25.65 21.55 25 23.25 25C24.9 25 26.6 25.3 28 26.05C28.1 26.1 28.15 26.1 28.25 26.1C28.5 26.1 28.75 25.85 28.75 25.6V11C28.15 10.55 27.5 10.25 26.75 10ZM26.75 23.5C25.65 23.15 24.45 23 23.25 23C21.55 23 19.1 23.65 17.75 24.5V13C19.1 12.15 21.55 11.5 23.25 11.5C24.45 11.5 25.65 11.65 26.75 12V23.5Z" fill="white"/>
<path d="M23.25 15.5C24.13 15.5 24.98 15.59 25.75 15.76V14.24C24.96 14.09 24.11 14 23.25 14C21.55 14 20.01 14.29 18.75 14.83V16.49C19.88 15.85 21.45 15.5 23.25 15.5Z" fill="white"/>
<path d="M18.75 17.49V19.15C19.88 18.51 21.45 18.16 23.25 18.16C24.13 18.16 24.98 18.25 25.75 18.42V16.9C24.96 16.75 24.11 16.66 23.25 16.66C21.55 16.66 20.01 16.96 18.75 17.49Z" fill="white"/>
<path d="M23.25 19.33C21.55 19.33 20.01 19.62 18.75 20.16V21.82C19.88 21.18 21.45 20.83 23.25 20.83C24.13 20.83 24.98 20.92 25.75 21.09V19.57C24.96 19.41 24.11 19.33 23.25 19.33Z" fill="white"/>
</g>
<defs>
<clipPath id="clip0_2017_1060">
<rect width="24" height="24" fill="white" transform="translate(5.75 5)"/>
</clipPath>
</defs>
</svg>
